# AST/ASF file generated using VICON BodyLanguage
# -----------------------------------------------
:version 1.10
:name VICON
:units
  mass 1.0
  length 0.45
  angle deg
:documentation
   .ast/.asf automatically generated from VICON data using
   VICON BodyBuilder and BodyLanguage model FoxedUp or BRILLIANT.MOD
:root
   order TX TY TZ RX RY RZ
   axis XYZ
   position 0 0 0  
   orientation 0 0 0 
:bonedata
  begin
     id 1 
     name lhipjoint
     direction 0.711131 -0.61297 0.344326 
     length 2.29162 
     axis 0 0 0  XYZ
  end
  begin
     id 2 
     name lfemur
     direction 0.34202 -0.939693 0  
     length 6.71424  
     axis 0 0 20  XYZ
    dof rx ry rz
    limits (-160.0 20.0)
           (-70.0 70.0)
           (-60.0 70.0)
  end
  begin
     id 3 
     name ltibia
     direction 0.34202 -0.939693 0   
     length 6.7087   
     axis 0 0 20   XYZ
    dof rx
    limits (-10.0 170.0)
  end
  begin
     id 4 
     name lfoot
     direction 0.0230374 -0.0632947 0.997729   
     length 1.56743   
     axis -90 7.62852e-016 20   XYZ
    dof rx rz
    limits (-45.0 90.0)
           (-70.0 20.0)
  end
  begin
     id 5 
     name ltoes
     direction 1.53585e-011 -4.21885e-011 1   
     length 0.802914   
     axis -90 7.62852e-016 20   XYZ
    dof rx
    limits (-90.0 20.0)
  end
  begin
     id 6 
     name rhipjoint
     direction -0.733192 -0.592884 0.333043   
     length 2.36925  
     axis 0 0 0  XYZ 
  end
  begin
     id 7 
     name rfemur
     direction -0.34202 -0.939693 0   
     length 6.67027   
     axis 0 0 -20   XYZ
    dof rx ry rz
    limits (-160.0 20.0)
           (-70.0 70.0)
           (-70.0 60.0)
  end
  begin
     id 8 
     name rtibia
     direction -0.34202 -0.939693 0   
     length 6.6862   
     axis 0 0 -20   XYZ
    dof rx
    limits (-10.0 170.0)
 end
 begin
     id 9 
     name rfoot
     direction -0.0949739 -0.260939 0.960672   
     length 1.67698  
     axis -90 -7.62852e-016 -20   XYZ
    dof rx rz
    limits (-45.0 90.0)
           (-20.0 70.0)
  end
  begin
     id 10 
     name rtoes
     direction -1.5353e-011 -4.21868e-011 1   
     length 0.846298   
     axis -90 -7.62852e-016 -20   XYZ
    dof rx
    limits (-90.0 20.0)
  end
  begin
     id 11 
     name lowerback
     direction -0.0206828 0.999785 -0.00109866   
     length 2.04382   
     axis 0 0 0   XYZ
    dof rx ry rz
    limits (-20.0 45.0)
           (-30.0 30.0)
           (-30.0 30.0)
  end
  begin
     id 12 
     name upperback
     direction -0.0105003 0.999727 -0.0208904   
     length 2.04538   
     axis 0 0 0   XYZ
    dof rx ry rz
    limits (-20.0 45.0)
           (-30.0 30.0)
           (-30.0 30.0)
  end
  begin
     id 13 
     name thorax
     direction -0.000416255 0.999808 -0.0196023   
     length 2.0399   
     axis 0 0 0   XYZ
    dof rx ry rz
    limits (-20.0 45.0)
           (-30.0 30.0)
           (-30.0 30.0)
  end
  begin
     id 14 
     name lowerneck
     direction 0.0627861 0.989205 0.13241   
     length 1.46207   
     axis 0 0 0   XYZ
    dof rx ry rz
    limits (-20.0 45.0)
           (-30.0 30.0)
           (-30.0 30.0)
  end
  begin
     id 15 
     name upperneck
     direction 0.00627179 0.994526 0.104303   
     length 1.41419   
     axis 0 0 0   XYZ
    dof rx ry rz
    limits (-20.0 45.0)
           (-30.0 30.0)
           (-30.0 30.0)
  end
  begin
     id 16
     name head
     direction -0.00443838 0.999688 0.0245968  
     length 1.50718  
     axis 0 0 0   XYZ
    dof rx ry rz
    limits (-20.0 45.0)
           (-30.0 30.0)
           (-30.0 30.0)
  end
  begin
     id 17 
     name lclavicle
     direction 0.758742 0.650995 -0.0227258  
     length 2.86888  
     axis 0 0 0   XYZ
    dof ry rz
    limits (-20.0 10.0)
           (0.0 20.0)
  end
  begin
     id 18 
     name lhumerus
     direction 1 -4.48962e-011 1.06664e-027   
     length 4.65776   
     axis -180 -30 -90   XYZ
    dof rx ry rz
    limits (-60.0 90.0)
           (-90.0 90.0)
           (-90.0 90.0)
  end
  begin
     id 19
     name lradius
     direction 1 -4.48968e-011 1.40404e-026   
     length 3.55539   
     axis -180 -30 -90   XYZ
    dof rx
    limits (-10.0 170.0)
  end
  begin
     id 20
     name lwrist
     direction 1 -4.48976e-011 3.32647e-026   
     length 1.77769   
     axis -2.20186e-014 90 90   XYZ
    dof ry
    limits (-180.0 0.0)
 end
  begin
     id 21 
     name lhand
     direction 1 -4.48982e-011 6.65293e-026   
     length 0.707264   
     axis -4.24514e-014 90 90   XYZ
    dof rx rz
    limits (-90.0 90.0)
           (-45.0 45.0)
  end
  begin
     id 22 
     name lfingers
     direction 1 -4.48966e-011 1.33059e-025   
     length 0.570215   
     axis -8.49028e-014 90 90   XYZ
    dof rx
    limits (0.0 90.0)
  end
  begin
     id 23
     name lthumb
     direction 0.707107 -6.3493e-011 0.707107   
     length 0.818718   
     axis -90 45 2.85299e-015   XYZ
    dof rx rz
    limits (-45.0 45.0)
           (-45.0 45.0)
  end
  begin
     id 24 
     name rclavicle
     direction -0.870343 0.482028 -0.100759   
     length 3.2251  
     axis 0 0 0   XYZ 
    dof ry rz
    limits (-10.0 20.0)
           (-20.0 0.0)
  end
  begin
     id 25 
     name rhumerus
     direction -1 -4.48974e-011 -9.45849e-028  
     length 4.71925   
     axis -180 30 90   XYZ
    dof rx ry rz
    limits (-90.0 60.0)
           (-90.0 90.0)
           (-90.0 90.0)
  end
  begin
     id 26 
     name rradius
     direction -1 -4.48965e-011 1.17607e-026   
     length 3.5699   
     axis -180 30 90   XYZ
    dof rx
    limits (-10.0 170.0)
  end
  begin
     id 27 
     name rwrist
     direction -1 -4.48968e-011 3.32647e-026   
     length 1.78495   
     axis -2.20186e-014 -90 -90   XYZ
    dof ry
    limits (-180.0 0.0)
  end
  begin
     id 28
     name rhand
     direction -1 -4.48995e-011 6.65293e-026   
     length 0.507757   
     axis -4.24514e-014 -90 -90   XYZ
    dof rx rz
    limits (-90.0 90.0)
           (-45.0 45.0)
  end
  begin
     id 29
     name rfingers
     direction -1 -4.48864e-011 1.33059e-025   
     length 0.409367   
     axis -8.49028e-014 -90 -90   XYZ
    dof rx
    limits (0.0 90.0)
  end
  begin
     id 30
     name rthumb
     direction -0.707107 -6.3494e-011 0.707107   
     length 0.587771   
     axis -90 -45 -2.85299e-015   XYZ
    dof rx rz
    limits (-45.0 45.0)
           (-45.0 45.0)
  end
:hierarchy
  begin
    root lhipjoint rhipjoint lowerback
    lhipjoint lfemur
    lfemur ltibia
    ltibia lfoot
    lfoot ltoes
    rhipjoint rfemur
    rfemur rtibia
    rtibia rfoot
    rfoot rtoes
    lowerback upperback
    upperback thorax
    thorax lowerneck lclavicle rclavicle
    lowerneck upperneck
    upperneck head
    lclavicle lhumerus
    lhumerus lradius
    lradius lwrist
    lwrist lhand lthumb
    lhand lfingers
    rclavicle rhumerus
    rhumerus rradius
    rradius rwrist
    rwrist rhand rthumb
    rhand rfingers
  end

#!OML:ASF E:\Steps\Project 1\Capture day 1\Session 2\Subject.ASF
:FULLY-SPECIFIED
:DEGREES
33
root 16.1215 16.3401 21.1176 -155.162 -0.422078 177.765
lowerback -30.0638 -2.1092 -7.38767
upperback -1.09401 -0.882421 -0.136639
thorax 14.6622 -1.15852 3.43897
lowerneck -5.99555 -1.63087 -0.766677
upperneck 4.60502 -2.29561 3.77501
head 2.56642 -1.01503 1.25335
rclavicle 5.96354e-015 -1.11319e-014
rhumerus -36.692 -20.1614 -78.3956
rradius 29.9374
rwrist -4.21781
rhand -10.3964 -64.0207
rfingers 7.12502
rthumb 15.6019 -266.589
lclavicle 5.96354e-015 -1.11319e-014
lhumerus -31.015 8.434 80.2773
lradius 19.6791
lwrist -4.8546
lhand -22.6387 -13.4047
lfingers 7.12502
lthumb 3.79197 16.5414
rfemur -22.1256 7.28992 18.5149
rtibia 8.59992
rfoot -19.0964 -2.90513
rtoes -19.0163
lfemur -22.8576 -8.31936 -22.0135
ltibia 8.72632
lfoot -7.15681 -3.00547
ltoes -32.7481
34
root 16.1219 16.3408 21.117 -155.236 -0.4189 177.717
lowerback -30.011 -2.12213 -7.43557
upperback -1.06961 -0.879088 -0.15061
thorax 14.6662 -1.15842 3.4523
lowerneck -6.05755 -1.68402 -0.598628
upperneck 4.77934 -2.37791 3.62647
head 2.63255 -1.05499 1.17249
rclavicle -6.36111e-015 -3.97569e-016
rhumerus -36.6676 -20.2253 -78.3695
rradius 29.9136
rwrist -4.21661
rhand -10.5014 -64.2415
rfingers 7.12502
rthumb 15.5008 -266.36
lclavicle -6.36111e-015 -3.97569e-016
lhumerus -31.0136 8.36892 80.2834
lradius 19.7123
lwrist -4.71959
lhand -22.3979 -13.5771
lfingers 7.12502
lthumb 4.02454 16.3646
rfemur -22.0365 7.21645 18.4799
rtibia 8.59321
rfoot -19.0782 -2.88572
rtoes -18.9831
lfemur -22.7302 -8.46202 -22.0578
ltibia 8.65883
lfoot -7.12743 -2.88217
ltoes -32.8339
35
root 16.1229 16.3397 21.1179 -155.188 -0.393341 177.718
lowerback -30.088 -2.13805 -7.45748
upperback -1.05535 -0.889055 -0.124494
thorax 14.7196 -1.16714 3.487
lowerneck -6.11405 -1.71748 -0.537691
upperneck 4.95837 -2.42731 3.51051
head 2.7011 -1.07991 1.12232
rclavicle 9.0447e-015 -9.14409e-015
rhumerus -36.5713 -20.1911 -78.373
rradius 29.8704
rwrist -4.24814
rhand -10.595 -64.4204
rfingers 7.12502
rthumb 15.4106 -266.174
lclavicle 9.0447e-015 -9.14409e-015
lhumerus -30.9893 8.47234 80.3117
lradius 19.7551
lwrist -4.77865
lhand -22.4304 -13.5631
lfingers 7.12502
lthumb 3.99313 16.3792
rfemur -22.1001 7.2656 18.4651
rtibia 8.59194
rfoot -18.9927 -2.87764
rtoes -18.8256
lfemur -22.8195 -8.31851 -22.083
ltibia 8.72632
lfoot -7.02413 -2.94868
ltoes -32.3398
36
root 16.1249 16.3406 21.118 -155.215 -0.389663 177.727
lowerback -30.0785 -2.14121 -7.4709
upperback -1.0317 -0.886723 -0.101714
thorax 14.7437 -1.16706 3.52078
lowerneck -6.11448 -1.67308 -0.604172
upperneck 4.92074 -2.36286 3.5262
head 2.68851 -1.04953 1.14173
rclavicle -4.91992e-015 1.98785e-016
rhumerus -36.5902 -20.0853 -78.3751
rradius 29.9638
rwrist -4.26714
rhand -10.6982 -64.6711
rfingers 7.12502
rthumb 15.3112 -265.916
lclavicle -4.91992e-015 1.98785e-016
lhumerus -30.9986 8.43035 80.3784
lradius 19.8565
lwrist -4.76665
lhand -22.3591 -13.4058
lfingers 7.12502
lthumb 4.06202 16.5352
rfemur -22.0624 7.33424 18.4763
rtibia 8.57127
rfoot -18.9445 -2.9215
rtoes -18.9534
lfemur -22.8399 -8.15814 -22.101
ltibia 8.74674
lfoot -6.94794 -3.07224
ltoes -32.0687
